<?xml version="1.0" standalone="no"?><svg xmlns="http://www.w3.org/2000/svg" viewBox="0 0 1440 320"><path fill="#273036" fill-opacity="1" d="M0,96L34.3,112C68.6,128,137,160,206,170.7C274.3,181,343,171,411,138.7C480,107,549,53,617,48C685.7,43,754,85,823,96C891.4,107,960,85,1029,90.7C1097.1,96,1166,128,1234,154.7C1302.9,181,1371,203,1406,213.3L1440,224L1440,320L1405.7,320C1371.4,320,1303,320,1234,320C1165.7,320,1097,320,1029,320C960,320,891,320,823,320C754.3,320,686,320,617,320C548.6,320,480,320,411,320C342.9,320,274,320,206,320C137.1,320,69,320,34,320L0,320Z"></path></svg>