<svg height="100%" width="100%" id="svg" viewBox="0 0 1440 700" xmlns="http://www.w3.org/2000/svg" class="transition duration-300 ease-in-out delay-150"><path d="M 0,700 C 0,700 0,175 0,175 C 27.61381680043594,135.94228800984817 55.22763360087188,96.88457601969633 93,110 C 130.77236639912812,123.11542398030367 178.7032823969484,188.40398393106287 218,195 C 257.2967176030516,201.59601606893713 287.9592368113344,149.49948825605213 320,151 C 352.0407631886656,152.50051174394787 385.4597703577139,207.59806304472863 424,206 C 462.5402296422861,204.40193695527137 506.2016817578102,146.1082595650333 544,145 C 581.7983182421898,143.8917404349667 613.7335026110455,199.96889869513808 651,202 C 688.2664973889545,204.03110130486192 730.8643077980075,152.0161456544143 765,136 C 799.1356922019925,119.9838543455857 824.8092661969243,139.96651868720477 866,142 C 907.1907338030757,144.03348131279523 963.8986274142956,128.11777959676675 1002,129 C 1040.1013725857044,129.88222040323325 1059.5962241458933,147.56236292572825 1092,171 C 1124.4037758541067,194.43763707427175 1169.7164760021317,223.6327687003203 1211,230 C 1252.2835239978683,236.3672312996797 1289.53787184558,219.9065622729907 1334,204 C 1378.46212815442,188.0934377270093 1430.1320366155485,172.74098220771694 1449,168 C 1467.8679633844515,163.25901779228306 1453.9339816922256,169.12950889614154 1440,175 C 1440,175 1440,700 1440,700 Z" stroke="none" stroke-width="0" fill="#00245966" class="transition-all duration-300 ease-in-out delay-150"></path><path d="M 0,700 C 0,700 0,350 0,350 C 31.10485402522623,333.3674086488338 62.20970805045246,316.73481729766763 98,313 C 133.79029194954754,309.26518270233237 174.2660218234164,318.4281394581633 220,336 C 265.7339781765836,353.5718605418367 316.72620465588204,379.55262486967933 351,370 C 385.27379534411796,360.44737513032067 402.8291595530556,315.36136106311926 437,318 C 471.1708404469444,320.63863893688074 521.9571571318957,371.00193087784356 563,389 C 604.0428428681043,406.99806912215644 635.3422119193621,392.6309154255065 666,363 C 696.6577880806379,333.3690845744935 726.673995190656,288.47440742013055 763,300 C 799.326004809344,311.52559257986945 841.9618073180135,379.4714548939714 882,386 C 922.0381926819865,392.5285451060286 959.4787755372902,337.639773003984 995,331 C 1030.5212244627098,324.360226996016 1064.1230905328257,365.9694530900927 1098,376 C 1131.8769094671743,386.0305469099073 1166.0288623314075,364.4824146356452 1200,360 C 1233.9711376685925,355.5175853643548 1267.7614601415441,368.10088836732626 1315,361 C 1362.2385398584559,353.89911163267374 1422.925297102416,327.11403189504966 1446,322 C 1469.074702897584,316.88596810495034 1454.537351448792,333.44298405247514 1440,350 C 1440,350 1440,700 1440,700 Z" stroke="none" stroke-width="0" fill="#00245988" class="transition-all duration-300 ease-in-out delay-150"></path><path d="M 0,700 C 0,700 0,525 0,525 C 32.54515665115197,511.0875884071566 65.09031330230394,497.1751768143132 103,519 C 140.90968669769606,540.8248231856868 184.18390344193625,598.3868811499037 226,588 C 267.81609655806375,577.6131188500963 308.17407292995114,499.2772985860715 349,495 C 389.82592707004886,490.7227014139285 431.11980483825926,560.5039245058105 460,581 C 488.88019516174074,601.4960754941895 505.34670771701155,572.7070033906869 540,550 C 574.6532922829884,527.2929966093131 627.4933642936946,510.6680619314419 672,497 C 716.5066357063054,483.3319380685581 752.6798351082102,472.6207488835453 791,491 C 829.3201648917898,509.3792511164547 869.7872952734646,556.8489425343773 906,572 C 942.2127047265354,587.1510574656227 974.170983797932,569.9834809789455 1010,543 C 1045.829016202068,516.0165190210545 1085.5287695348081,479.2171335498406 1116,460 C 1146.4712304651919,440.7828664501594 1167.713938062835,439.14798482169226 1202,471 C 1236.286061937165,502.85201517830774 1283.6154782138522,568.1909271633906 1332,570 C 1380.3845217861478,571.8090728366094 1429.8241490817566,510.0883065247456 1448,492 C 1466.1758509182434,473.9116934752544 1453.0879254591218,499.4558467376272 1440,525 C 1440,525 1440,700 1440,700 Z" stroke="none" stroke-width="0" fill="#002459ff" class="transition-all duration-300 ease-in-out delay-150"></path></svg>