<svg height="100%" width="100%" id="svg" viewBox="0 0 1440 700" xmlns="http://www.w3.org/2000/svg" class="transition duration-300 ease-in-out delay-150"><defs><linearGradient id="gradient"><stop offset="5%" stop-color="#24242466"></stop><stop offset="95%" stop-color="#24242466"></stop></linearGradient></defs><path d="M 0,700 C 0,700 0,175 0,175 C 59.50607966457021,154.5876680231841 119.01215932914042,134.17533604636824 165,152 C 210.98784067085958,169.82466395363176 243.45744234800844,225.8863238377112 298,234 C 352.54255765199156,242.1136761622888 429.1580712788259,202.27936860278703 483,188 C 536.8419287211741,173.72063139721297 567.9102725366877,184.9962017511407 615,201 C 662.0897274633123,217.0037982488593 725.2008385744235,237.73582439265016 786,219 C 846.7991614255765,200.26417560734984 905.2863731656186,142.0605006782587 962,137 C 1018.7136268343814,131.9394993217413 1073.6536687631028,180.02217289431496 1128,184 C 1182.3463312368972,187.97782710568504 1236.0989517819705,147.85080774448144 1288,139 C 1339.9010482180295,130.14919225551856 1389.9505241090146,152.57459612775926 1440,175 C 1440,175 1440,700 1440,700 Z" stroke="none" stroke-width="0" fill="url(#gradient)" class="transition-all duration-300 ease-in-out delay-150"></path><defs><linearGradient id="gradient"><stop offset="5%" stop-color="#24242488"></stop><stop offset="95%" stop-color="#24242488"></stop></linearGradient></defs><path d="M 0,700 C 0,700 0,350 0,350 C 55.755826859045484,368.5137501541497 111.51165371809097,387.0275003082994 170,390 C 228.48834628190903,392.9724996917006 289.7092119866815,380.403748920952 345,380 C 400.2907880133185,379.596251079048 449.6514983351831,391.35750400789254 497,374 C 544.3485016648169,356.64249599210746 589.684794672586,310.1662350474781 647,299 C 704.315205327414,287.8337649525219 773.6093229744729,311.9775558021951 825,317 C 876.3906770255271,322.0224441978049 909.8779134295228,307.9235417437415 962,313 C 1014.1220865704772,318.0764582562585 1084.8790233074362,342.32827722283884 1144,353 C 1203.1209766925638,363.67172277716116 1250.6059933407325,360.7633493649032 1298,358 C 1345.3940066592675,355.2366506350968 1392.6970033296338,352.6183253175484 1440,350 C 1440,350 1440,700 1440,700 Z" stroke="none" stroke-width="0" fill="url(#gradient)" class="transition-all duration-300 ease-in-out delay-150"></path><defs><linearGradient id="gradient"><stop offset="5%" stop-color="#242424ff"></stop><stop offset="95%" stop-color="#242424ff"></stop></linearGradient></defs><path d="M 0,700 C 0,700 0,525 0,525 C 38.715945246022926,550.5365149833518 77.43189049204585,576.0730299667036 130,575 C 182.56810950795415,573.9269700332964 248.9883832778395,546.2443951165372 318,551 C 387.0116167221605,555.7556048834628 458.61457639659636,592.9493895671476 507,579 C 555.3854236034036,565.0506104328524 580.5533111357752,499.95804661487244 634,496 C 687.4466888642248,492.04195338512756 769.1721790603033,549.2184239733629 823,552 C 876.8278209396967,554.7815760266371 902.7579726230116,503.1682574916759 954,494 C 1005.2420273769884,484.8317425083241 1081.7959304476508,518.1085460599334 1142,523 C 1202.2040695523492,527.8914539400666 1246.0583055863854,504.39755826859044 1293,500 C 1339.9416944136146,495.60244173140956 1389.9708472068073,510.30122086570475 1440,525 C 1440,525 1440,700 1440,700 Z" stroke="none" stroke-width="0" fill="url(#gradient)" class="transition-all duration-300 ease-in-out delay-150"></path></svg>